<?xml version="1.0" encoding="utf-8"?>
<!-- Generator: Adobe Illustrator 26.0.3, SVG Export Plug-In . SVG Version: 6.00 Build 0)  -->
<svg version="1.1" id="Layer_1" xmlns="http://www.w3.org/2000/svg" xmlns:xlink="http://www.w3.org/1999/xlink" x="0px" y="0px"
	 viewBox="0 0 1280 640" style="enable-background:new 0 0 1280 640;" xml:space="preserve">
<g id="MTN_Logo">
	<path d="M640,0C286.5,0,0,143.3,0,320s286.5,320,640,320s640-143.3,640-320S993.5,0,640,0z M640,589.5
		C314.4,589.5,50.5,468.8,50.5,320S314.4,50.5,640,50.5s589.5,120.7,589.5,269.5S965.6,589.5,640,589.5z M559.3,263.9v-50.5h180.5
		v50.5h-65v162.8h-50.5V263.9H559.3z M957.8,213.3v213.3h-50.5l-91.6-127v127h-50.5V213.3h50.5l91.6,127v-127L957.8,213.3z
		 M320.7,426.7V213.3h50.5l56.1,86.3l56.1-86.3H534v213.3h-50.5V306l-38.3,58.9h-35.6L371.2,306v120.7H320.7z"/>
</g>
</svg>
